# xmcd
#
# Track frame offsets:
#	150
#	18770
#	34914
#	54320
#	71410
#	88968
#	109546
#	133174
#	149291
#	176749
#	197866
#	221837
#	235332
#
# Disc length: 3178 seconds
#
# Revision: 0
# Processed by: cddbd v1.5.2PL0 Copyright (c) Steve Scherf et al.
# Submitted via: dBpowerAMP V4.0
#
DISCID=bf0c680d
DTITLE=Phil Berkowitz and The High Rollers - High Time
DYEAR=2001
DGENRE=Blues
TTITLE0=24-7 Man
TTITLE1=Before You Go
TTITLE2=Don't Go There
TTITLE3=Flexible Flyer
TTITLE4=Ain't No Big Deal
TTITLE5=5-10-15 Hours
TTITLE6=The Good, The Bad And The Ugly
TTITLE7=Washing Machine Blues
TTITLE8=Sometimes
TTITLE9=Dark Is The Night
TTITLE10=That Extra Mile
TTITLE11=High Time
TTITLE12=Bonus Track
EXTD=
EXTT0=
EXTT1=
EXTT2=
EXTT3=
EXTT4=
EXTT5=
EXTT6=
EXTT7=
EXTT8=
EXTT9=
EXTT10=
EXTT11=
EXTT12=
PLAYORDER=
